<svg width="140" height="140" viewBox="0 0 140 140" fill="none" xmlns="http://www.w3.org/2000/svg">
<circle cx="70" cy="70" r="70" fill="#171718"/>
<circle cx="70" cy="69" r="64" fill="white"/>
<circle cx="70.5" cy="69.5" r="54.5" fill="#171718"/>
<path d="M101.7 100C98.4333 100 95.6 99.3333 93.2 98C90.8 96.6667 88.4333 94.8667 86.1 92.6C83.5667 89.9333 80.5 86.8667 76.9 83.4C75.2333 81.6667 73.5333 80.2333 71.8 79.1C70.0667 77.9667 68.1 77.1 65.9 76.5C63.7667 75.9 61.1 75.6 57.9 75.6H53.2V99H40V48.2L39 40.2H53.2V65.8H58.8C60.1333 65.8 61.2333 65.6333 62.1 65.3C62.9667 64.9667 63.7667 64.4333 64.5 63.7C66.3667 61.8333 68.5 59.5 70.9 56.7C73.3 53.9 75.6333 51.0333 77.9 48.1C80.2333 45.1 82.2333 42.4667 83.9 40.2H100.1L96 46.2C94.1333 48.1333 92.1333 50.2333 90 52.5C87.8667 54.7667 85.7667 57 83.7 59.2C81.6333 61.3333 79.7667 63.2333 78.1 64.9C76.4333 66.5 75.2 67.6667 74.4 68.4C76.2 69 77.8333 69.7667 79.3 70.7C80.8333 71.6333 82.7 73 84.9 74.8C86.5667 76.1333 88.1667 77.5 89.7 78.9C91.3 80.3 93.1333 81.9667 95.2 83.9C97.5333 86.0333 99.7333 87.6 101.8 88.6C103.867 89.6 105.6 90.2333 107 90.5C108.467 90.7667 109.4 90.9 109.8 90.9L107.8 99C107.6 99.2 107 99.4 106 99.6C105 99.8667 103.567 100 101.7 100Z" fill="#5C62EC"/>
</svg>
