<svg viewBox="0 0 180 29" fill="none" xmlns="http://www.w3.org/2000/svg">
  <path d="M20.624 22.32c-1.045 0-1.952-.213-2.72-.64-.768-.427-1.525-1.003-2.272-1.728a95.254 95.254 0 0 0-2.944-2.944 9.476 9.476 0 0 0-1.632-1.376 6.593 6.593 0 0 0-1.888-.832c-.683-.192-1.536-.288-2.56-.288H5.104V22H.88V5.744l-.32-2.56h4.544v8.192h1.792c.427 0 .779-.053 1.056-.16.277-.107.533-.277.768-.512a40.355 40.355 0 0 0 2.048-2.24 69.9 69.9 0 0 0 2.24-2.752c.747-.96 1.387-1.803 1.92-2.528h5.184L18.8 5.104c-.597.619-1.237 1.29-1.92 2.016l-2.016 2.144c-.661.683-1.259 1.29-1.792 1.824-.533.512-.928.885-1.184 1.12a7.07 7.07 0 0 1 1.568.736c.49.299 1.088.736 1.792 1.312.533.427 1.045.864 1.536 1.312.512.448 1.099.981 1.76 1.6.747.683 1.45 1.184 2.112 1.504.661.32 1.216.523 1.664.608.47.085.768.128.896.128L22.576 22c-.064.064-.256.128-.576.192-.32.085-.779.128-1.376.128Zm8.955-.32c-1.621 0-2.794-.373-3.52-1.12-.725-.768-1.088-1.813-1.088-3.136 0-1.387.374-2.453 1.12-3.2.768-.747 1.93-1.12 3.488-1.12h1.632c1.6 0 3.04.043 4.32.128 1.28.085 2.336.17 3.168.256v-2.112c0-.192-.021-.384-.064-.576-.042-.213-.17-.384-.384-.512-.213-.128-.576-.192-1.088-.192h-1.6c-2.325 0-4.266.043-5.824.128-1.557.064-2.613.128-3.168.192l-.352-2.432c0-.299.81-.48 2.432-.544 1.622-.064 4.33-.096 8.128-.096h1.6c1.067 0 1.888.15 2.464.448.576.299.982.672 1.216 1.12.256.448.406.907.448 1.376.064.448.096.832.096 1.152V22H39.98l-1.248-.64c-.896.15-1.973.299-3.232.448-1.258.128-2.698.192-4.32.192h-1.6Zm.832-2.752h7.328c.47 0 .747-.043.832-.128.086-.085.128-.352.128-.8v-2.464h-8.288c-.576 0-.981.139-1.216.416-.213.277-.32.715-.32 1.312 0 .597.128 1.024.384 1.28s.64.384 1.152.384ZM46.295 22V7.664h2.624l1.216.64a8.246 8.246 0 0 1 1.792-.704c.64-.17 1.45-.256 2.432-.256 1.557 0 2.816.17 3.776.512.981.341 1.632.597 1.952.768l-1.12 2.784c-.256-.128-.683-.288-1.28-.48a15.224 15.224 0 0 0-2.048-.576 12.27 12.27 0 0 0-2.592-.256h-.352c-1.024 0-1.696.203-2.016.608-.299.405-.459 1.077-.48 2.016V22h-3.904Zm16.031 5.952V7.664h2.624l.8.416c.96-.107 2.102-.203 3.424-.288a72.956 72.956 0 0 1 4.576-.128h1.632c1.067 0 1.888.139 2.464.416.576.277.982.63 1.216 1.056.256.427.406.875.448 1.344.064.47.096.896.096 1.28v6.144c0 .32-.032.715-.096 1.184a3.34 3.34 0 0 1-.448 1.344c-.234.448-.64.821-1.216 1.12-.576.299-1.397.448-2.464.448H73.75c-1.621 0-3.061-.043-4.32-.128-1.258-.085-2.325-.17-3.2-.256v6.336h-3.904Zm4.896-8.704h6.944a1.77 1.77 0 0 0 1.056-.32c.32-.213.48-.533.48-.96v-6.272c.022-.47-.096-.8-.352-.992-.234-.192-.63-.288-1.184-.288h-1.6c-1.365 0-2.581.032-3.648.096a61.53 61.53 0 0 0-2.688.16v7.584c0 .47.043.757.128.864.107.085.395.128.864.128ZM87.042 22c-1.429 0-2.495-.288-3.2-.864-.682-.576-1.023-1.515-1.023-2.816v-6.56c0-.32.021-.704.064-1.152.064-.47.213-.928.448-1.376.256-.448.672-.821 1.248-1.12.597-.299 1.418-.448 2.464-.448h8.832c1.066 0 1.888.15 2.464.448.576.299.981.672 1.216 1.12.256.448.405.907.448 1.376.064.448.096.832.096 1.152v6.144c0 .384-.032.81-.096 1.28-.043.47-.192.917-.448 1.344-.256.427-.672.779-1.248 1.056S96.92 22 95.875 22h-8.832Zm1.217-2.752h6.4c1.045 0 1.568-.427 1.568-1.28v-6.272c0-.853-.523-1.28-1.568-1.28h-6.4c-1.024 0-1.536.427-1.536 1.28v6.272c0 .853.512 1.28 1.536 1.28ZM108.6 22l-6.592-14.336h4.48l3.68 8.832L111 18.8h.32l.832-2.304 3.744-8.832h4.352l-.512 1.952L113.72 22h-5.12Zm15.227 6.272c-1.024 0-1.963-.117-2.816-.352-.854-.235-1.43-.448-1.729-.64l.96-2.88c.363.15.875.32 1.537.512.682.213 1.45.32 2.304.32h.352c.981 0 1.845-.299 2.592-.896.768-.576 1.354-1.355 1.759-2.336h-1.599l-6.272-14.336h4.48l3.68 8.832.832 2.304h.32l.832-2.304 3.744-8.832h4.352l-.513 1.952c-.405.832-.874 1.792-1.407 2.88l-1.6 3.328a257.148 257.148 0 0 1-1.632 3.328A577.04 577.04 0 0 1 132.627 22c-.619 1.28-1.302 2.39-2.048 3.328-.726.939-1.568 1.664-2.528 2.176-.939.512-2.059.768-3.36.768h-.864ZM145.293 22c-1.067 0-1.888-.139-2.464-.416-.576-.277-.992-.63-1.248-1.056a3.84 3.84 0 0 1-.448-1.344c-.043-.47-.064-.896-.064-1.28V11.76c0-.32.021-.704.064-1.152.064-.47.213-.928.448-1.376.256-.448.672-.821 1.248-1.12.597-.299 1.418-.448 2.464-.448h4.448c2.666 0 4.554.075 5.664.224 1.13.128 1.696.267 1.696.416l-.64 2.432a95.142 95.142 0 0 0-2.272-.128 60.263 60.263 0 0 0-2.976-.128 75.334 75.334 0 0 0-3.072-.064h-1.632c-1.024 0-1.536.427-1.536 1.28v6.272c-.022.853.49 1.28 1.536 1.28h1.632c1.152 0 2.272-.01 3.36-.032 1.109-.043 2.122-.085 3.04-.128.917-.064 1.653-.117 2.208-.16l1.28 2.08c0 .661-2.102.992-6.304.992h-6.432Zm14.971 0V1.264h3.904v7.04c.896-.17 1.973-.32 3.232-.448 1.258-.128 2.698-.192 4.32-.192h1.6c1.066 0 1.888.15 2.464.448.576.299.981.672 1.216 1.12.256.448.405.907.448 1.376.064.448.096.832.096 1.152V22h-3.904V11.696c0-.853-.512-1.28-1.536-1.28h-6.976c-.406 0-.672.043-.8.128-.107.064-.16.256-.16.576V22h-3.904Z" fill="#5C62EC"/>
</svg>
