<svg width="328" height="29" viewBox="0 0 328 29" fill="none" xmlns="http://www.w3.org/2000/svg">
<path d="M20.624 22.32C19.5787 22.32 18.672 22.1067 17.904 21.68C17.136 21.2533 16.3787 20.6773 15.632 19.952C14.8213 19.0987 13.84 18.1173 12.688 17.008C12.1547 16.4533 11.6107 15.9947 11.056 15.632C10.5013 15.2693 9.872 14.992 9.168 14.8C8.48533 14.608 7.632 14.512 6.608 14.512H5.104V22H0.88V5.744L0.56 3.184H5.104V11.376H6.896C7.32267 11.376 7.67467 11.3227 7.952 11.216C8.22933 11.1093 8.48533 10.9387 8.72 10.704C9.31733 10.1067 10 9.36 10.768 8.464C11.536 7.568 12.2827 6.65067 13.008 5.712C13.7547 4.752 14.3947 3.90933 14.928 3.184H20.112L18.8 5.104C18.2027 5.72267 17.5627 6.39467 16.88 7.12C16.1973 7.84533 15.5253 8.56 14.864 9.264C14.2027 9.94667 13.6053 10.5547 13.072 11.088C12.5387 11.6 12.144 11.9733 11.888 12.208C12.464 12.4 12.9867 12.6453 13.456 12.944C13.9467 13.2427 14.544 13.68 15.248 14.256C15.7813 14.6827 16.2933 15.12 16.784 15.568C17.296 16.016 17.8827 16.5493 18.544 17.168C19.2907 17.8507 19.9947 18.352 20.656 18.672C21.3173 18.992 21.872 19.1947 22.32 19.28C22.7893 19.3653 23.088 19.408 23.216 19.408L22.576 22C22.512 22.064 22.32 22.128 22 22.192C21.68 22.2773 21.2213 22.32 20.624 22.32ZM29.5793 22C27.9579 22 26.7846 21.6267 26.0593 20.88C25.3339 20.112 24.9713 19.0667 24.9713 17.744C24.9713 16.3573 25.3446 15.2907 26.0913 14.544C26.8593 13.7973 28.0219 13.424 29.5793 13.424H31.2113C32.8113 13.424 34.2513 13.4667 35.5313 13.552C36.8113 13.6373 37.8673 13.7227 38.6993 13.808V11.696C38.6993 11.504 38.6779 11.312 38.6353 11.12C38.5926 10.9067 38.4646 10.736 38.2513 10.608C38.0379 10.48 37.6753 10.416 37.1633 10.416H35.5633C33.2379 10.416 31.2966 10.4587 29.7393 10.544C28.1819 10.608 27.1259 10.672 26.5713 10.736L26.2193 8.304C26.2193 8.00533 27.0299 7.824 28.6513 7.76C30.2726 7.696 32.9819 7.664 36.7793 7.664H38.3793C39.4459 7.664 40.2673 7.81333 40.8433 8.112C41.4193 8.41067 41.8246 8.784 42.0593 9.232C42.3153 9.68 42.4646 10.1387 42.5073 10.608C42.5713 11.056 42.6033 11.44 42.6033 11.76V22H39.9792L38.7313 21.36C37.8353 21.5093 36.7579 21.6587 35.4993 21.808C34.2406 21.936 32.8006 22 31.1793 22H29.5793ZM30.4113 19.248H37.7393C38.2086 19.248 38.4859 19.2053 38.5713 19.12C38.6566 19.0347 38.6993 18.768 38.6993 18.32V15.856H30.4113C29.8353 15.856 29.4299 15.9947 29.1953 16.272C28.9819 16.5493 28.8753 16.9867 28.8753 17.584C28.8753 18.1813 29.0033 18.608 29.2593 18.864C29.5153 19.12 29.8993 19.248 30.4113 19.248ZM46.295 22V7.664H48.919L50.135 8.304C50.6897 8.00533 51.287 7.77067 51.927 7.6C52.567 7.42933 53.3777 7.344 54.359 7.344C55.9163 7.344 57.175 7.51467 58.135 7.856C59.1163 8.19733 59.767 8.45333 60.087 8.624L58.967 11.408C58.711 11.28 58.2843 11.12 57.687 10.928C57.111 10.7147 56.4283 10.5227 55.639 10.352C54.8497 10.1813 53.9857 10.096 53.047 10.096H52.695C51.671 10.096 50.999 10.2987 50.679 10.704C50.3803 11.1093 50.2203 11.7813 50.199 12.72V22H46.295ZM62.3263 27.952V7.664H64.9503L65.7503 8.08C66.7103 7.97333 67.8516 7.87733 69.1743 7.792C70.5183 7.70667 72.0436 7.664 73.7503 7.664H75.3823C76.4489 7.664 77.2703 7.80267 77.8463 8.08C78.4223 8.35733 78.8276 8.70933 79.0623 9.136C79.3183 9.56267 79.4676 10.0107 79.5103 10.48C79.5743 10.9493 79.6063 11.376 79.6063 11.76V17.904C79.6063 18.224 79.5743 18.6187 79.5103 19.088C79.4676 19.536 79.3183 19.984 79.0623 20.432C78.8276 20.88 78.4223 21.2533 77.8463 21.552C77.2703 21.8507 76.4489 22 75.3823 22H73.7503C72.1289 22 70.6889 21.9573 69.4303 21.872C68.1716 21.7867 67.1049 21.7013 66.2303 21.616V27.952H62.3263ZM67.2223 19.248H74.1663C74.5716 19.248 74.9236 19.1413 75.2223 18.928C75.5423 18.7147 75.7023 18.3947 75.7023 17.968V11.696C75.7236 11.2267 75.6063 10.896 75.3503 10.704C75.1156 10.512 74.7209 10.416 74.1663 10.416H72.5663C71.2009 10.416 69.9849 10.448 68.9183 10.512C67.8729 10.5547 66.9769 10.608 66.2303 10.672V18.256C66.2303 18.7253 66.2729 19.0133 66.3583 19.12C66.4649 19.2053 66.7529 19.248 67.2223 19.248ZM87.0428 22C85.6134 22 84.5468 21.712 83.8428 21.136C83.1601 20.56 82.8188 19.6213 82.8188 18.32V11.76C82.8188 11.44 82.8401 11.056 82.8828 10.608C82.9468 10.1387 83.0961 9.68 83.3307 9.232C83.5868 8.784 84.0028 8.41067 84.5788 8.112C85.1761 7.81333 85.9974 7.664 87.0428 7.664H95.8748C96.9414 7.664 97.7628 7.81333 98.3388 8.112C98.9148 8.41067 99.3201 8.784 99.5548 9.232C99.8108 9.68 99.9601 10.1387 100.003 10.608C100.067 11.056 100.099 11.44 100.099 11.76V17.904C100.099 18.288 100.067 18.7147 100.003 19.184C99.9601 19.6533 99.8108 20.1013 99.5548 20.528C99.2988 20.9547 98.8828 21.3067 98.3068 21.584C97.7308 21.8613 96.9201 22 95.8748 22H87.0428ZM88.2588 19.248H94.6588C95.7041 19.248 96.2268 18.8213 96.2268 17.968V11.696C96.2268 10.8427 95.7041 10.416 94.6588 10.416H88.2588C87.2348 10.416 86.7228 10.8427 86.7228 11.696V17.968C86.7228 18.8213 87.2348 19.248 88.2588 19.248ZM108.6 22L102.008 7.664H106.488L110.168 16.496L111 18.8H111.32L112.152 16.496L115.896 7.664H120.248L119.736 9.616L113.72 22H108.6ZM123.827 28.272C122.803 28.272 121.864 28.1547 121.011 27.92C120.157 27.6853 119.581 27.472 119.282 27.28L120.242 24.4C120.605 24.5493 121.117 24.72 121.779 24.912C122.461 25.1253 123.229 25.232 124.083 25.232H124.435C125.416 25.232 126.28 24.9333 127.027 24.336C127.795 23.76 128.381 22.9813 128.786 22H127.187L120.915 7.664H125.395L129.075 16.496L129.907 18.8H130.227L131.059 16.496L134.803 7.664H139.155L138.642 9.616C138.237 10.448 137.768 11.408 137.235 12.496C136.723 13.5627 136.189 14.672 135.635 15.824C135.08 16.976 134.536 18.0853 134.003 19.152C133.491 20.2187 133.032 21.168 132.627 22C132.008 23.28 131.325 24.3893 130.579 25.328C129.853 26.2667 129.011 26.992 128.051 27.504C127.112 28.016 125.992 28.272 124.691 28.272H123.827ZM145.293 22C144.226 22 143.405 21.8613 142.829 21.584C142.253 21.3067 141.837 20.9547 141.581 20.528C141.346 20.1013 141.197 19.6533 141.133 19.184C141.09 18.7147 141.069 18.288 141.069 17.904V11.76C141.069 11.44 141.09 11.056 141.133 10.608C141.197 10.1387 141.346 9.68 141.581 9.232C141.837 8.784 142.253 8.41067 142.829 8.112C143.426 7.81333 144.247 7.664 145.293 7.664H149.741C152.407 7.664 154.295 7.73867 155.405 7.888C156.535 8.016 157.101 8.15467 157.101 8.304L156.461 10.736C155.863 10.6933 155.106 10.6507 154.189 10.608C153.271 10.544 152.279 10.5013 151.213 10.48C150.167 10.4373 149.143 10.416 148.141 10.416H146.509C145.485 10.416 144.973 10.8427 144.973 11.696V17.968C144.951 18.8213 145.463 19.248 146.509 19.248H148.141C149.293 19.248 150.413 19.2373 151.501 19.216C152.61 19.1733 153.623 19.1307 154.541 19.088C155.458 19.024 156.194 18.9707 156.749 18.928L158.029 21.008C158.029 21.6693 155.927 22 151.725 22H145.293ZM160.264 22V1.264H164.168V8.304C165.064 8.13333 166.141 7.984 167.4 7.856C168.658 7.728 170.098 7.664 171.72 7.664H173.32C174.386 7.664 175.208 7.81333 175.784 8.112C176.36 8.41067 176.765 8.784 177 9.232C177.256 9.68 177.405 10.1387 177.448 10.608C177.512 11.056 177.544 11.44 177.544 11.76V22H173.64V11.696C173.64 10.8427 173.128 10.416 172.104 10.416H165.128C164.722 10.416 164.456 10.4587 164.328 10.544C164.221 10.608 164.168 10.8 164.168 11.12V22H160.264Z" fill="#5C62EC"/>
<path d="M188.264 27.952V7.664H190.888L191.688 8.08C192.648 7.97333 193.789 7.87733 195.112 7.792C196.456 7.70667 197.981 7.664 199.688 7.664H201.32C202.386 7.664 203.208 7.80267 203.784 8.08C204.36 8.35733 204.765 8.70933 205 9.136C205.256 9.56267 205.405 10.0107 205.448 10.48C205.512 10.9493 205.544 11.376 205.544 11.76V17.904C205.544 18.224 205.512 18.6187 205.448 19.088C205.405 19.536 205.256 19.984 205 20.432C204.765 20.88 204.36 21.2533 203.784 21.552C203.208 21.8507 202.386 22 201.32 22H199.688C198.066 22 196.626 21.9573 195.368 21.872C194.109 21.7867 193.042 21.7013 192.168 21.616V27.952H188.264ZM193.16 19.248H200.104C200.509 19.248 200.861 19.1413 201.16 18.928C201.48 18.7147 201.64 18.3947 201.64 17.968V11.696C201.661 11.2267 201.544 10.896 201.288 10.704C201.053 10.512 200.658 10.416 200.104 10.416H198.504C197.138 10.416 195.922 10.448 194.856 10.512C193.81 10.5547 192.914 10.608 192.168 10.672V18.256C192.168 18.7253 192.21 19.0133 192.296 19.12C192.402 19.2053 192.69 19.248 193.16 19.248ZM212.98 22C211.551 22 210.484 21.712 209.78 21.136C209.098 20.56 208.756 19.6213 208.756 18.32V11.76C208.756 11.44 208.778 11.056 208.82 10.608C208.884 10.1387 209.034 9.68 209.268 9.232C209.524 8.784 209.94 8.41067 210.516 8.112C211.114 7.81333 211.935 7.664 212.98 7.664H221.812C222.879 7.664 223.7 7.81333 224.276 8.112C224.852 8.41067 225.258 8.784 225.492 9.232C225.748 9.68 225.898 10.1387 225.94 10.608C226.004 11.056 226.036 11.44 226.036 11.76V17.904C226.036 18.288 226.004 18.7147 225.94 19.184C225.898 19.6533 225.748 20.1013 225.492 20.528C225.236 20.9547 224.82 21.3067 224.244 21.584C223.668 21.8613 222.858 22 221.812 22H212.98ZM214.196 19.248H220.596C221.642 19.248 222.164 18.8213 222.164 17.968V11.696C222.164 10.8427 221.642 10.416 220.596 10.416H214.196C213.172 10.416 212.66 10.8427 212.66 11.696V17.968C212.66 18.8213 213.172 19.248 214.196 19.248ZM229.545 22V7.664H232.169L233.385 8.304C233.94 8.00533 234.537 7.77067 235.177 7.6C235.817 7.42933 236.628 7.344 237.609 7.344C239.166 7.344 240.425 7.51467 241.385 7.856C242.366 8.19733 243.017 8.45333 243.337 8.624L242.217 11.408C241.961 11.28 241.534 11.12 240.937 10.928C240.361 10.7147 239.678 10.5227 238.889 10.352C238.1 10.1813 237.236 10.096 236.297 10.096H235.945C234.921 10.096 234.249 10.2987 233.929 10.704C233.63 11.1093 233.47 11.7813 233.449 12.72V22H229.545ZM251.144 22C249.523 22 248.414 21.6587 247.816 20.976C247.219 20.2933 246.92 19.2693 246.92 17.904V10.416H244.296V7.664H245.64C246.046 7.664 246.334 7.6 246.504 7.472C246.696 7.344 246.835 7.088 246.92 6.704L247.56 3.28H250.824V7.664H257.48V10.416H250.824V17.936C250.824 18.4693 250.952 18.8213 251.208 18.992C251.464 19.1627 251.848 19.248 252.36 19.248H256.872L257.192 21.68C256.744 21.744 256.062 21.8187 255.144 21.904C254.227 21.968 253.224 22 252.136 22H251.144ZM260.749 22V10.416H258.765V7.696H260.749V4.848C260.749 4.12267 260.888 3.45067 261.165 2.832C261.464 2.21333 261.944 1.712 262.605 1.328C263.288 0.943999 264.184 0.751999 265.293 0.751999H266.893C269.453 0.751999 271.288 0.869332 272.397 1.104C273.528 1.33867 274.093 1.54133 274.093 1.712L273.133 4.144C272.77 3.99467 272.12 3.856 271.181 3.728C270.242 3.57867 269.112 3.504 267.789 3.504H266.189C265.656 3.504 265.261 3.6 265.005 3.792C264.77 3.984 264.653 4.31467 264.653 4.784V7.696H271.309V10.416H264.653V22H260.749ZM277.98 22C276.551 22 275.484 21.712 274.78 21.136C274.098 20.56 273.756 19.6213 273.756 18.32V11.76C273.756 11.44 273.778 11.056 273.82 10.608C273.884 10.1387 274.034 9.68 274.268 9.232C274.524 8.784 274.94 8.41067 275.516 8.112C276.114 7.81333 276.935 7.664 277.98 7.664H286.812C287.879 7.664 288.7 7.81333 289.276 8.112C289.852 8.41067 290.258 8.784 290.492 9.232C290.748 9.68 290.898 10.1387 290.94 10.608C291.004 11.056 291.036 11.44 291.036 11.76V17.904C291.036 18.288 291.004 18.7147 290.94 19.184C290.898 19.6533 290.748 20.1013 290.492 20.528C290.236 20.9547 289.82 21.3067 289.244 21.584C288.668 21.8613 287.858 22 286.812 22H277.98ZM279.196 19.248H285.596C286.642 19.248 287.164 18.8213 287.164 17.968V11.696C287.164 10.8427 286.642 10.416 285.596 10.416H279.196C278.172 10.416 277.66 10.8427 277.66 11.696V17.968C277.66 18.8213 278.172 19.248 279.196 19.248ZM294.865 22V4.272L294.545 1.712H298.769V22H294.865ZM304.88 5.648C304.09 5.648 303.514 5.488 303.152 5.168C302.789 4.848 302.608 4.31467 302.608 3.568C302.608 2.8 302.778 2.26667 303.12 1.968C303.482 1.648 304.069 1.488 304.88 1.488C305.69 1.488 306.277 1.648 306.64 1.968C307.002 2.26667 307.184 2.8 307.184 3.568C307.184 4.29333 307.002 4.82667 306.64 5.168C306.277 5.488 305.69 5.648 304.88 5.648ZM302.928 22V7.664H306.832V22H302.928ZM314.918 22C313.488 22 312.422 21.712 311.718 21.136C311.035 20.56 310.694 19.6213 310.694 18.32V11.76C310.694 11.44 310.715 11.056 310.758 10.608C310.822 10.1387 310.971 9.68 311.206 9.232C311.462 8.784 311.878 8.41067 312.454 8.112C313.051 7.81333 313.872 7.664 314.918 7.664H323.75C324.816 7.664 325.638 7.81333 326.214 8.112C326.79 8.41067 327.195 8.784 327.43 9.232C327.686 9.68 327.835 10.1387 327.878 10.608C327.942 11.056 327.974 11.44 327.974 11.76V17.904C327.974 18.288 327.942 18.7147 327.878 19.184C327.835 19.6533 327.686 20.1013 327.43 20.528C327.174 20.9547 326.758 21.3067 326.182 21.584C325.606 21.8613 324.795 22 323.75 22H314.918ZM316.134 19.248H322.534C323.579 19.248 324.102 18.8213 324.102 17.968V11.696C324.102 10.8427 323.579 10.416 322.534 10.416H316.134C315.11 10.416 314.598 10.8427 314.598 11.696V17.968C314.598 18.8213 315.11 19.248 316.134 19.248Z" fill="white"/>
</svg>
